<svg xmlns="http://www.w3.org/2000/svg" viewBox="0 0 480 320" role="img">
<circle cx="86" cy="150" r="34" fill="none" stroke="#FFFBF3" stroke-width="2.4" stroke-linecap="round" stroke-linejoin="round"/>
<circle cx="86" cy="150" r="9" fill="#E76051"/>
<circle cx="232" cy="112" r="30" fill="none" stroke="#FFFBF3" stroke-width="2.4" stroke-linecap="round" stroke-linejoin="round"/>
<circle cx="232" cy="112" r="8" fill="#FFFBF3"/>
<circle cx="238" cy="212" r="28" fill="none" stroke="#FFFBF3" stroke-width="2.4" stroke-linecap="round" stroke-linejoin="round"/>
<circle cx="238" cy="212" r="8" fill="#FFFBF3"/>
<path d="M120 150h58" fill="none" stroke="#E76051" stroke-width="2.4" stroke-linecap="round" stroke-linejoin="round" stroke-dasharray="4 5"/>
<path d="M108 130l68-22" fill="none" stroke="#E76051" stroke-width="2.4" stroke-linecap="round" stroke-linejoin="round" stroke-dasharray="4 5"/>
<path d="M114 174l70 32" fill="none" stroke="#E76051" stroke-width="2.4" stroke-linecap="round" stroke-linejoin="round" stroke-dasharray="4 5"/>
<text x="142" y="142" font-family="ui-monospace,monospace" font-size="12" fill="#FFFBF3">H</text>
<rect x="306" y="42" width="152" height="182" rx="6" fill="none" stroke="#FFFBF3" stroke-width="2.4" stroke-linecap="round" stroke-linejoin="round"/>
<path d="M324 198h118" fill="none" stroke="#9DB7F0" stroke-width="1.8" stroke-linecap="round" stroke-linejoin="round"/>
<path d="M324 198V62" fill="none" stroke="#9DB7F0" stroke-width="1.8" stroke-linecap="round" stroke-linejoin="round"/>
<path d="M332 76h18v104h-18z" fill="none" stroke="#E76051" stroke-width="2.4" stroke-linecap="round" stroke-linejoin="round"/>
<path d="M364 106h18v74h-18z" fill="none" stroke="#9DB7F0" stroke-width="1.8" stroke-linecap="round" stroke-linejoin="round"/>
<path d="M396 132h18v48h-18z" fill="none" stroke="#9DB7F0" stroke-width="1.8" stroke-linecap="round" stroke-linejoin="round"/>
<path d="M428 156h14v24h-14z" fill="none" stroke="#9DB7F0" stroke-width="1.8" stroke-linecap="round" stroke-linejoin="round"/>
<text x="326" y="216" font-family="ui-monospace,monospace" font-size="11" fill="#9DB7F0">C(t)</text>
<text x="30" y="30" font-family="ui-monospace,monospace" font-size="12" fill="#9DB7F0" letter-spacing="1.5">06 · HYDROGEN BONDS</text>
</svg>
