<svg xmlns="http://www.w3.org/2000/svg" viewBox="0 0 480 320" role="img">
<rect x="34" y="70" width="76" height="168" rx="4" fill="none" stroke="#FFFBF3" stroke-width="2.4" stroke-linecap="round" stroke-linejoin="round"/>
<rect x="130" y="70" width="46" height="168" rx="4" fill="none" stroke="#E76051" stroke-width="2.4" stroke-linecap="round" stroke-linejoin="round"/>
<rect x="196" y="70" width="76" height="168" rx="4" fill="none" stroke="#FFFBF3" stroke-width="2.4" stroke-linecap="round" stroke-linejoin="round"/>
<text x="58" y="164" font-family="ui-monospace,monospace" font-size="20" fill="#FFFBF3">S</text>
<text x="142" y="164" font-family="ui-monospace,monospace" font-size="20" fill="#E76051">I</text>
<text x="222" y="164" font-family="ui-monospace,monospace" font-size="20" fill="#FFFBF3">S</text>
<path d="M92 140h56" fill="none" stroke="#E76051" stroke-width="2.4" stroke-linecap="round" stroke-linejoin="round" stroke-dasharray="4 5"/>
<path d="M148 140l-9-6M148 140l-9 6" fill="none" stroke="#E76051" stroke-width="2.4" stroke-linecap="round" stroke-linejoin="round"/>
<path d="M92 176h56" fill="none" stroke="#E76051" stroke-width="2.4" stroke-linecap="round" stroke-linejoin="round" stroke-dasharray="4 5"/>
<path d="M148 176l-9-6M148 176l-9 6" fill="none" stroke="#E76051" stroke-width="2.4" stroke-linecap="round" stroke-linejoin="round"/>
<rect x="306" y="42" width="152" height="182" rx="6" fill="none" stroke="#FFFBF3" stroke-width="2.4" stroke-linecap="round" stroke-linejoin="round"/>
<path d="M324 198h118" fill="none" stroke="#9DB7F0" stroke-width="1.8" stroke-linecap="round" stroke-linejoin="round"/>
<path d="M324 198V62" fill="none" stroke="#9DB7F0" stroke-width="1.8" stroke-linecap="round" stroke-linejoin="round"/>
<path d="M324 132h118" fill="none" stroke="#9DB7F0" stroke-width="1.8" stroke-linecap="round" stroke-linejoin="round" stroke-dasharray="3 5"/>
<path d="M384 62v136" fill="none" stroke="#9DB7F0" stroke-width="1.8" stroke-linecap="round" stroke-linejoin="round" stroke-dasharray="3 5"/>
<path d="M384 132c22 0 34-4 46-38s16-30 12-30" fill="none" stroke="#E76051" stroke-width="2.4" stroke-linecap="round" stroke-linejoin="round"/>
<path d="M384 132c-22 0-34 4-46 38s-16 30-12 30" fill="none" stroke="#E76051" stroke-width="2.4" stroke-linecap="round" stroke-linejoin="round"/>
<text x="326" y="216" font-family="ui-monospace,monospace" font-size="11" fill="#9DB7F0">I–V</text>
<text x="30" y="30" font-family="ui-monospace,monospace" font-size="12" fill="#9DB7F0" letter-spacing="1.5">08 · JOSEPHSON JUNCTION</text>
</svg>
